<svg xmlns="http://www.w3.org/2000/svg" width="83.663" height="21.975" viewBox="0 0 83.663 21.975">
  <g id="Group_411" data-name="Group 411" transform="translate(10491 12778.761)">
    <g id="b" transform="translate(-10491 -12778.761)">
      <g id="Group_410" data-name="Group 410" transform="translate(0 0)">
        <path id="Path_67" data-name="Path 67" d="M64.967,149.52c2.037,0,3.586,1.141,3.586,3.939v8.91h-3.64v-7.524c0-1.385-.38-2.282-1.657-2.282-1.114,0-2.064.706-2.064,2.879v6.927h-3.64v-7.524c0-1.385-.353-2.282-1.657-2.282-1.141,0-2.064.706-2.064,2.906v6.9H50.19V149.819h3.1l.435,2.418a3.747,3.747,0,0,1,3.857-2.716,2.992,2.992,0,0,1,3.314,2.744A4.036,4.036,0,0,1,64.967,149.52Z" transform="translate(-50.19 -146.043)" fill="#1cbaaa"/>
        <path id="Path_68" data-name="Path 68" d="M311.646,159.074a26.172,26.172,0,0,1,.869,4.047h.109a23.593,23.593,0,0,1,.9-4.02l1.738-5.731h3.83l-4.971,13.663c-1.413,3.884-3.151,4.536-5.731,4.536a10.253,10.253,0,0,1-2.255-.3l.543-3.205a3.269,3.269,0,0,0,1.657.435c1.141,0,1.847-.489,2.363-1.874L306.05,153.37h3.966Z" transform="translate(-286.193 -149.594)" fill="#1cbaaa"/>
        <path id="Path_69" data-name="Path 69" d="M503.524,112.516v8.529h-2.282l-.6-1.793a4.758,4.758,0,0,1-4.4,2.119c-4.156,0-7.144-2.635-7.144-8.258s2.934-8.393,7.823-8.393c3.205,0,5.46,1.494,6.519,4.047l-3.558,1.738a3.122,3.122,0,0,0-3.1-2.526c-1.711,0-3.884,1.168-3.884,5.188,0,2.879,1.059,5.188,3.939,5.188,2.146,0,3.151-1.005,3.151-2.363v-.543h-3.368v-2.934Z" transform="translate(-455.036 -104.72)" fill="#0f1c29"/>
        <path id="Path_70" data-name="Path 70" d="M730.967,116.662a14.478,14.478,0,0,1,1.331,2.146h.109s-.081-1.358-.081-3.4V108.92h3.694v16h-3.368L727,117.313a15.771,15.771,0,0,1-1.521-2.363h-.109a32.332,32.332,0,0,1,.163,3.613v6.356H721.84v-16h3.477Z" transform="translate(-669.713 -108.594)" fill="#0f1c29"/>
        <path id="Path_71" data-name="Path 71" d="M941.618,117.531a24.978,24.978,0,0,1,.924,4.265h.109a23.606,23.606,0,0,1,.869-4.237l2.608-8.638h3.857l-5.27,16H940.26l-5.27-16h3.939Z" transform="translate(-866.321 -108.594)" fill="#0f1c29"/>
      </g>
    </g>
  </g>
</svg>
